%TF.GenerationSoftware,KiCad,Pcbnew,9.0.6*%
%TF.CreationDate,2025-12-19T10:25:59-07:00*%
%TF.ProjectId,6button-6neopixel,36627574-746f-46e2-9d36-6e656f706978,rev?*%
%TF.SameCoordinates,Original*%
%TF.FileFunction,Legend,Top*%
%TF.FilePolarity,Positive*%
%FSLAX46Y46*%
G04 Gerber Fmt 4.6, Leading zero omitted, Abs format (unit mm)*
G04 Created by KiCad (PCBNEW 9.0.6) date 2025-12-19 10:25:59*
%MOMM*%
%LPD*%
G01*
G04 APERTURE LIST*
%ADD10C,0.254000*%
%ADD11C,2.540000*%
%ADD12C,0.250000*%
%ADD13C,0.152400*%
%ADD14C,0.508000*%
%ADD15C,0.200000*%
G04 APERTURE END LIST*
D10*
X183426100Y-82778600D02*
X184696100Y-84048600D01*
X81826100Y-82778600D02*
X83096100Y-84048600D01*
X81826100Y-82778600D02*
X83096100Y-81508600D01*
D11*
X135890880Y-96814680D02*
X135890880Y-91099680D01*
D10*
X158026100Y-82778600D02*
X159296100Y-81508600D01*
D11*
X212090880Y-96814680D02*
X212090880Y-91099680D01*
X186690880Y-96814680D02*
X186690880Y-91099680D01*
D10*
X183426100Y-82778600D02*
X184696100Y-81508600D01*
X208826100Y-82778600D02*
X210096100Y-84048600D01*
D11*
X110490880Y-96814680D02*
X110490880Y-91099680D01*
D10*
X132626100Y-82778600D02*
X133896100Y-81508600D01*
D11*
X161290880Y-96814680D02*
X161290880Y-91099680D01*
D10*
X158026100Y-82778600D02*
X164376100Y-82778600D01*
X132626100Y-82778600D02*
X138976100Y-82778600D01*
X107226100Y-82778600D02*
X108496100Y-81508600D01*
X81826100Y-82778600D02*
X88176100Y-82778600D01*
X183426100Y-82778600D02*
X189776100Y-82778600D01*
X132626100Y-82778600D02*
X133896100Y-84048600D01*
X107226100Y-82778600D02*
X108496100Y-84048600D01*
X208826100Y-82778600D02*
X215176100Y-82778600D01*
D11*
X85123760Y-96838500D02*
X85123760Y-91123500D01*
D10*
X107226100Y-82778600D02*
X113576100Y-82778600D01*
X208826100Y-82778600D02*
X210096100Y-81508600D01*
X158026100Y-82778600D02*
X159296100Y-84048600D01*
D11*
X217693818Y-116938031D02*
X215274771Y-116938031D01*
X215274771Y-116938031D02*
X214065247Y-117542793D01*
X214065247Y-117542793D02*
X213460485Y-118147555D01*
X213460485Y-118147555D02*
X212250961Y-119961841D01*
X212250961Y-119961841D02*
X211646199Y-122380889D01*
X211646199Y-122380889D02*
X211646199Y-127218984D01*
X211646199Y-127218984D02*
X212250961Y-128428508D01*
X212250961Y-128428508D02*
X212855723Y-129033270D01*
X212855723Y-129033270D02*
X214065247Y-129638031D01*
X214065247Y-129638031D02*
X216484294Y-129638031D01*
X216484294Y-129638031D02*
X217693818Y-129033270D01*
X217693818Y-129033270D02*
X218298580Y-128428508D01*
X218298580Y-128428508D02*
X218903342Y-127218984D01*
X218903342Y-127218984D02*
X218903342Y-124195174D01*
X218903342Y-124195174D02*
X218298580Y-122985650D01*
X218298580Y-122985650D02*
X217693818Y-122380889D01*
X217693818Y-122380889D02*
X216484294Y-121776127D01*
X216484294Y-121776127D02*
X214065247Y-121776127D01*
X214065247Y-121776127D02*
X212855723Y-122380889D01*
X212855723Y-122380889D02*
X212250961Y-122985650D01*
X212250961Y-122985650D02*
X211646199Y-124195174D01*
X166893818Y-121171365D02*
X166893818Y-129638031D01*
X163870009Y-116333270D02*
X160846199Y-125404698D01*
X160846199Y-125404698D02*
X168708104Y-125404698D01*
X94697342Y-129765031D02*
X87440199Y-129765031D01*
X91068771Y-129765031D02*
X91068771Y-117065031D01*
X91068771Y-117065031D02*
X89859247Y-118879317D01*
X89859247Y-118879317D02*
X88649723Y-120088841D01*
X88649723Y-120088841D02*
X87440199Y-120693603D01*
X110046199Y-118147555D02*
X110650961Y-117542793D01*
X110650961Y-117542793D02*
X111860485Y-116938031D01*
X111860485Y-116938031D02*
X114884294Y-116938031D01*
X114884294Y-116938031D02*
X116093818Y-117542793D01*
X116093818Y-117542793D02*
X116698580Y-118147555D01*
X116698580Y-118147555D02*
X117303342Y-119357079D01*
X117303342Y-119357079D02*
X117303342Y-120566603D01*
X117303342Y-120566603D02*
X116698580Y-122380889D01*
X116698580Y-122380889D02*
X109441437Y-129638031D01*
X109441437Y-129638031D02*
X117303342Y-129638031D01*
X192898580Y-116938031D02*
X186850961Y-116938031D01*
X186850961Y-116938031D02*
X186246199Y-122985650D01*
X186246199Y-122985650D02*
X186850961Y-122380889D01*
X186850961Y-122380889D02*
X188060485Y-121776127D01*
X188060485Y-121776127D02*
X191084294Y-121776127D01*
X191084294Y-121776127D02*
X192293818Y-122380889D01*
X192293818Y-122380889D02*
X192898580Y-122985650D01*
X192898580Y-122985650D02*
X193503342Y-124195174D01*
X193503342Y-124195174D02*
X193503342Y-127218984D01*
X193503342Y-127218984D02*
X192898580Y-128428508D01*
X192898580Y-128428508D02*
X192293818Y-129033270D01*
X192293818Y-129033270D02*
X191084294Y-129638031D01*
X191084294Y-129638031D02*
X188060485Y-129638031D01*
X188060485Y-129638031D02*
X186850961Y-129033270D01*
X186850961Y-129033270D02*
X186246199Y-128428508D01*
X134841437Y-116938031D02*
X142703342Y-116938031D01*
X142703342Y-116938031D02*
X138470009Y-121776127D01*
X138470009Y-121776127D02*
X140284294Y-121776127D01*
X140284294Y-121776127D02*
X141493818Y-122380889D01*
X141493818Y-122380889D02*
X142098580Y-122985650D01*
X142098580Y-122985650D02*
X142703342Y-124195174D01*
X142703342Y-124195174D02*
X142703342Y-127218984D01*
X142703342Y-127218984D02*
X142098580Y-128428508D01*
X142098580Y-128428508D02*
X141493818Y-129033270D01*
X141493818Y-129033270D02*
X140284294Y-129638031D01*
X140284294Y-129638031D02*
X136655723Y-129638031D01*
X136655723Y-129638031D02*
X135446199Y-129033270D01*
X135446199Y-129033270D02*
X134841437Y-128428508D01*
D12*
X219687858Y-91907539D02*
X219211668Y-91907539D01*
X219211668Y-91907539D02*
X219211668Y-90907539D01*
X220021192Y-91383729D02*
X220354525Y-91383729D01*
X220497382Y-91907539D02*
X220021192Y-91907539D01*
X220021192Y-91907539D02*
X220021192Y-90907539D01*
X220021192Y-90907539D02*
X220497382Y-90907539D01*
X220925954Y-91907539D02*
X220925954Y-90907539D01*
X220925954Y-90907539D02*
X221164049Y-90907539D01*
X221164049Y-90907539D02*
X221306906Y-90955158D01*
X221306906Y-90955158D02*
X221402144Y-91050396D01*
X221402144Y-91050396D02*
X221449763Y-91145634D01*
X221449763Y-91145634D02*
X221497382Y-91336110D01*
X221497382Y-91336110D02*
X221497382Y-91478967D01*
X221497382Y-91478967D02*
X221449763Y-91669443D01*
X221449763Y-91669443D02*
X221402144Y-91764681D01*
X221402144Y-91764681D02*
X221306906Y-91859920D01*
X221306906Y-91859920D02*
X221164049Y-91907539D01*
X221164049Y-91907539D02*
X220925954Y-91907539D01*
X216497001Y-93796729D02*
X216639858Y-93844348D01*
X216639858Y-93844348D02*
X216687477Y-93891967D01*
X216687477Y-93891967D02*
X216735096Y-93987205D01*
X216735096Y-93987205D02*
X216735096Y-94130062D01*
X216735096Y-94130062D02*
X216687477Y-94225300D01*
X216687477Y-94225300D02*
X216639858Y-94272920D01*
X216639858Y-94272920D02*
X216544620Y-94320539D01*
X216544620Y-94320539D02*
X216163668Y-94320539D01*
X216163668Y-94320539D02*
X216163668Y-93320539D01*
X216163668Y-93320539D02*
X216497001Y-93320539D01*
X216497001Y-93320539D02*
X216592239Y-93368158D01*
X216592239Y-93368158D02*
X216639858Y-93415777D01*
X216639858Y-93415777D02*
X216687477Y-93511015D01*
X216687477Y-93511015D02*
X216687477Y-93606253D01*
X216687477Y-93606253D02*
X216639858Y-93701491D01*
X216639858Y-93701491D02*
X216592239Y-93749110D01*
X216592239Y-93749110D02*
X216497001Y-93796729D01*
X216497001Y-93796729D02*
X216163668Y-93796729D01*
X217163668Y-93320539D02*
X217163668Y-94130062D01*
X217163668Y-94130062D02*
X217211287Y-94225300D01*
X217211287Y-94225300D02*
X217258906Y-94272920D01*
X217258906Y-94272920D02*
X217354144Y-94320539D01*
X217354144Y-94320539D02*
X217544620Y-94320539D01*
X217544620Y-94320539D02*
X217639858Y-94272920D01*
X217639858Y-94272920D02*
X217687477Y-94225300D01*
X217687477Y-94225300D02*
X217735096Y-94130062D01*
X217735096Y-94130062D02*
X217735096Y-93320539D01*
X218068430Y-93320539D02*
X218639858Y-93320539D01*
X218354144Y-94320539D02*
X218354144Y-93320539D01*
X218830335Y-93320539D02*
X219401763Y-93320539D01*
X219116049Y-94320539D02*
X219116049Y-93320539D01*
X219925573Y-93320539D02*
X220116049Y-93320539D01*
X220116049Y-93320539D02*
X220211287Y-93368158D01*
X220211287Y-93368158D02*
X220306525Y-93463396D01*
X220306525Y-93463396D02*
X220354144Y-93653872D01*
X220354144Y-93653872D02*
X220354144Y-93987205D01*
X220354144Y-93987205D02*
X220306525Y-94177681D01*
X220306525Y-94177681D02*
X220211287Y-94272920D01*
X220211287Y-94272920D02*
X220116049Y-94320539D01*
X220116049Y-94320539D02*
X219925573Y-94320539D01*
X219925573Y-94320539D02*
X219830335Y-94272920D01*
X219830335Y-94272920D02*
X219735097Y-94177681D01*
X219735097Y-94177681D02*
X219687478Y-93987205D01*
X219687478Y-93987205D02*
X219687478Y-93653872D01*
X219687478Y-93653872D02*
X219735097Y-93463396D01*
X219735097Y-93463396D02*
X219830335Y-93368158D01*
X219830335Y-93368158D02*
X219925573Y-93320539D01*
X220782716Y-94320539D02*
X220782716Y-93320539D01*
X220782716Y-93320539D02*
X221354144Y-94320539D01*
X221354144Y-94320539D02*
X221354144Y-93320539D01*
X160807477Y-85748158D02*
X160712239Y-85700539D01*
X160712239Y-85700539D02*
X160569382Y-85700539D01*
X160569382Y-85700539D02*
X160426525Y-85748158D01*
X160426525Y-85748158D02*
X160331287Y-85843396D01*
X160331287Y-85843396D02*
X160283668Y-85938634D01*
X160283668Y-85938634D02*
X160236049Y-86129110D01*
X160236049Y-86129110D02*
X160236049Y-86271967D01*
X160236049Y-86271967D02*
X160283668Y-86462443D01*
X160283668Y-86462443D02*
X160331287Y-86557681D01*
X160331287Y-86557681D02*
X160426525Y-86652920D01*
X160426525Y-86652920D02*
X160569382Y-86700539D01*
X160569382Y-86700539D02*
X160664620Y-86700539D01*
X160664620Y-86700539D02*
X160807477Y-86652920D01*
X160807477Y-86652920D02*
X160855096Y-86605300D01*
X160855096Y-86605300D02*
X160855096Y-86271967D01*
X160855096Y-86271967D02*
X160664620Y-86271967D01*
X161283668Y-86700539D02*
X161283668Y-85700539D01*
X161283668Y-85700539D02*
X161855096Y-86700539D01*
X161855096Y-86700539D02*
X161855096Y-85700539D01*
X162331287Y-86700539D02*
X162331287Y-85700539D01*
X162331287Y-85700539D02*
X162569382Y-85700539D01*
X162569382Y-85700539D02*
X162712239Y-85748158D01*
X162712239Y-85748158D02*
X162807477Y-85843396D01*
X162807477Y-85843396D02*
X162855096Y-85938634D01*
X162855096Y-85938634D02*
X162902715Y-86129110D01*
X162902715Y-86129110D02*
X162902715Y-86271967D01*
X162902715Y-86271967D02*
X162855096Y-86462443D01*
X162855096Y-86462443D02*
X162807477Y-86557681D01*
X162807477Y-86557681D02*
X162712239Y-86652920D01*
X162712239Y-86652920D02*
X162569382Y-86700539D01*
X162569382Y-86700539D02*
X162331287Y-86700539D01*
X220449858Y-85700539D02*
X219973668Y-85700539D01*
X219973668Y-85700539D02*
X219926049Y-86176729D01*
X219926049Y-86176729D02*
X219973668Y-86129110D01*
X219973668Y-86129110D02*
X220068906Y-86081491D01*
X220068906Y-86081491D02*
X220307001Y-86081491D01*
X220307001Y-86081491D02*
X220402239Y-86129110D01*
X220402239Y-86129110D02*
X220449858Y-86176729D01*
X220449858Y-86176729D02*
X220497477Y-86271967D01*
X220497477Y-86271967D02*
X220497477Y-86510062D01*
X220497477Y-86510062D02*
X220449858Y-86605300D01*
X220449858Y-86605300D02*
X220402239Y-86652920D01*
X220402239Y-86652920D02*
X220307001Y-86700539D01*
X220307001Y-86700539D02*
X220068906Y-86700539D01*
X220068906Y-86700539D02*
X219973668Y-86652920D01*
X219973668Y-86652920D02*
X219926049Y-86605300D01*
X220783192Y-85700539D02*
X221116525Y-86700539D01*
X221116525Y-86700539D02*
X221449858Y-85700539D01*
X211607477Y-85748158D02*
X211512239Y-85700539D01*
X211512239Y-85700539D02*
X211369382Y-85700539D01*
X211369382Y-85700539D02*
X211226525Y-85748158D01*
X211226525Y-85748158D02*
X211131287Y-85843396D01*
X211131287Y-85843396D02*
X211083668Y-85938634D01*
X211083668Y-85938634D02*
X211036049Y-86129110D01*
X211036049Y-86129110D02*
X211036049Y-86271967D01*
X211036049Y-86271967D02*
X211083668Y-86462443D01*
X211083668Y-86462443D02*
X211131287Y-86557681D01*
X211131287Y-86557681D02*
X211226525Y-86652920D01*
X211226525Y-86652920D02*
X211369382Y-86700539D01*
X211369382Y-86700539D02*
X211464620Y-86700539D01*
X211464620Y-86700539D02*
X211607477Y-86652920D01*
X211607477Y-86652920D02*
X211655096Y-86605300D01*
X211655096Y-86605300D02*
X211655096Y-86271967D01*
X211655096Y-86271967D02*
X211464620Y-86271967D01*
X212083668Y-86700539D02*
X212083668Y-85700539D01*
X212083668Y-85700539D02*
X212655096Y-86700539D01*
X212655096Y-86700539D02*
X212655096Y-85700539D01*
X213131287Y-86700539D02*
X213131287Y-85700539D01*
X213131287Y-85700539D02*
X213369382Y-85700539D01*
X213369382Y-85700539D02*
X213512239Y-85748158D01*
X213512239Y-85748158D02*
X213607477Y-85843396D01*
X213607477Y-85843396D02*
X213655096Y-85938634D01*
X213655096Y-85938634D02*
X213702715Y-86129110D01*
X213702715Y-86129110D02*
X213702715Y-86271967D01*
X213702715Y-86271967D02*
X213655096Y-86462443D01*
X213655096Y-86462443D02*
X213607477Y-86557681D01*
X213607477Y-86557681D02*
X213512239Y-86652920D01*
X213512239Y-86652920D02*
X213369382Y-86700539D01*
X213369382Y-86700539D02*
X213131287Y-86700539D01*
X135994858Y-78715539D02*
X135518668Y-78715539D01*
X135518668Y-78715539D02*
X135471049Y-79191729D01*
X135471049Y-79191729D02*
X135518668Y-79144110D01*
X135518668Y-79144110D02*
X135613906Y-79096491D01*
X135613906Y-79096491D02*
X135852001Y-79096491D01*
X135852001Y-79096491D02*
X135947239Y-79144110D01*
X135947239Y-79144110D02*
X135994858Y-79191729D01*
X135994858Y-79191729D02*
X136042477Y-79286967D01*
X136042477Y-79286967D02*
X136042477Y-79525062D01*
X136042477Y-79525062D02*
X135994858Y-79620300D01*
X135994858Y-79620300D02*
X135947239Y-79667920D01*
X135947239Y-79667920D02*
X135852001Y-79715539D01*
X135852001Y-79715539D02*
X135613906Y-79715539D01*
X135613906Y-79715539D02*
X135518668Y-79667920D01*
X135518668Y-79667920D02*
X135471049Y-79620300D01*
X136328192Y-78715539D02*
X136661525Y-79715539D01*
X136661525Y-79715539D02*
X136994858Y-78715539D01*
X212194858Y-78715539D02*
X211718668Y-78715539D01*
X211718668Y-78715539D02*
X211671049Y-79191729D01*
X211671049Y-79191729D02*
X211718668Y-79144110D01*
X211718668Y-79144110D02*
X211813906Y-79096491D01*
X211813906Y-79096491D02*
X212052001Y-79096491D01*
X212052001Y-79096491D02*
X212147239Y-79144110D01*
X212147239Y-79144110D02*
X212194858Y-79191729D01*
X212194858Y-79191729D02*
X212242477Y-79286967D01*
X212242477Y-79286967D02*
X212242477Y-79525062D01*
X212242477Y-79525062D02*
X212194858Y-79620300D01*
X212194858Y-79620300D02*
X212147239Y-79667920D01*
X212147239Y-79667920D02*
X212052001Y-79715539D01*
X212052001Y-79715539D02*
X211813906Y-79715539D01*
X211813906Y-79715539D02*
X211718668Y-79667920D01*
X211718668Y-79667920D02*
X211671049Y-79620300D01*
X212528192Y-78715539D02*
X212861525Y-79715539D01*
X212861525Y-79715539D02*
X213194858Y-78715539D01*
X84607477Y-85748158D02*
X84512239Y-85700539D01*
X84512239Y-85700539D02*
X84369382Y-85700539D01*
X84369382Y-85700539D02*
X84226525Y-85748158D01*
X84226525Y-85748158D02*
X84131287Y-85843396D01*
X84131287Y-85843396D02*
X84083668Y-85938634D01*
X84083668Y-85938634D02*
X84036049Y-86129110D01*
X84036049Y-86129110D02*
X84036049Y-86271967D01*
X84036049Y-86271967D02*
X84083668Y-86462443D01*
X84083668Y-86462443D02*
X84131287Y-86557681D01*
X84131287Y-86557681D02*
X84226525Y-86652920D01*
X84226525Y-86652920D02*
X84369382Y-86700539D01*
X84369382Y-86700539D02*
X84464620Y-86700539D01*
X84464620Y-86700539D02*
X84607477Y-86652920D01*
X84607477Y-86652920D02*
X84655096Y-86605300D01*
X84655096Y-86605300D02*
X84655096Y-86271967D01*
X84655096Y-86271967D02*
X84464620Y-86271967D01*
X85083668Y-86700539D02*
X85083668Y-85700539D01*
X85083668Y-85700539D02*
X85655096Y-86700539D01*
X85655096Y-86700539D02*
X85655096Y-85700539D01*
X86131287Y-86700539D02*
X86131287Y-85700539D01*
X86131287Y-85700539D02*
X86369382Y-85700539D01*
X86369382Y-85700539D02*
X86512239Y-85748158D01*
X86512239Y-85748158D02*
X86607477Y-85843396D01*
X86607477Y-85843396D02*
X86655096Y-85938634D01*
X86655096Y-85938634D02*
X86702715Y-86129110D01*
X86702715Y-86129110D02*
X86702715Y-86271967D01*
X86702715Y-86271967D02*
X86655096Y-86462443D01*
X86655096Y-86462443D02*
X86607477Y-86557681D01*
X86607477Y-86557681D02*
X86512239Y-86652920D01*
X86512239Y-86652920D02*
X86369382Y-86700539D01*
X86369382Y-86700539D02*
X86131287Y-86700539D01*
X186794858Y-78715539D02*
X186318668Y-78715539D01*
X186318668Y-78715539D02*
X186271049Y-79191729D01*
X186271049Y-79191729D02*
X186318668Y-79144110D01*
X186318668Y-79144110D02*
X186413906Y-79096491D01*
X186413906Y-79096491D02*
X186652001Y-79096491D01*
X186652001Y-79096491D02*
X186747239Y-79144110D01*
X186747239Y-79144110D02*
X186794858Y-79191729D01*
X186794858Y-79191729D02*
X186842477Y-79286967D01*
X186842477Y-79286967D02*
X186842477Y-79525062D01*
X186842477Y-79525062D02*
X186794858Y-79620300D01*
X186794858Y-79620300D02*
X186747239Y-79667920D01*
X186747239Y-79667920D02*
X186652001Y-79715539D01*
X186652001Y-79715539D02*
X186413906Y-79715539D01*
X186413906Y-79715539D02*
X186318668Y-79667920D01*
X186318668Y-79667920D02*
X186271049Y-79620300D01*
X187128192Y-78715539D02*
X187461525Y-79715539D01*
X187461525Y-79715539D02*
X187794858Y-78715539D01*
X186207477Y-85748158D02*
X186112239Y-85700539D01*
X186112239Y-85700539D02*
X185969382Y-85700539D01*
X185969382Y-85700539D02*
X185826525Y-85748158D01*
X185826525Y-85748158D02*
X185731287Y-85843396D01*
X185731287Y-85843396D02*
X185683668Y-85938634D01*
X185683668Y-85938634D02*
X185636049Y-86129110D01*
X185636049Y-86129110D02*
X185636049Y-86271967D01*
X185636049Y-86271967D02*
X185683668Y-86462443D01*
X185683668Y-86462443D02*
X185731287Y-86557681D01*
X185731287Y-86557681D02*
X185826525Y-86652920D01*
X185826525Y-86652920D02*
X185969382Y-86700539D01*
X185969382Y-86700539D02*
X186064620Y-86700539D01*
X186064620Y-86700539D02*
X186207477Y-86652920D01*
X186207477Y-86652920D02*
X186255096Y-86605300D01*
X186255096Y-86605300D02*
X186255096Y-86271967D01*
X186255096Y-86271967D02*
X186064620Y-86271967D01*
X186683668Y-86700539D02*
X186683668Y-85700539D01*
X186683668Y-85700539D02*
X187255096Y-86700539D01*
X187255096Y-86700539D02*
X187255096Y-85700539D01*
X187731287Y-86700539D02*
X187731287Y-85700539D01*
X187731287Y-85700539D02*
X187969382Y-85700539D01*
X187969382Y-85700539D02*
X188112239Y-85748158D01*
X188112239Y-85748158D02*
X188207477Y-85843396D01*
X188207477Y-85843396D02*
X188255096Y-85938634D01*
X188255096Y-85938634D02*
X188302715Y-86129110D01*
X188302715Y-86129110D02*
X188302715Y-86271967D01*
X188302715Y-86271967D02*
X188255096Y-86462443D01*
X188255096Y-86462443D02*
X188207477Y-86557681D01*
X188207477Y-86557681D02*
X188112239Y-86652920D01*
X188112239Y-86652920D02*
X187969382Y-86700539D01*
X187969382Y-86700539D02*
X187731287Y-86700539D01*
X110594858Y-78715539D02*
X110118668Y-78715539D01*
X110118668Y-78715539D02*
X110071049Y-79191729D01*
X110071049Y-79191729D02*
X110118668Y-79144110D01*
X110118668Y-79144110D02*
X110213906Y-79096491D01*
X110213906Y-79096491D02*
X110452001Y-79096491D01*
X110452001Y-79096491D02*
X110547239Y-79144110D01*
X110547239Y-79144110D02*
X110594858Y-79191729D01*
X110594858Y-79191729D02*
X110642477Y-79286967D01*
X110642477Y-79286967D02*
X110642477Y-79525062D01*
X110642477Y-79525062D02*
X110594858Y-79620300D01*
X110594858Y-79620300D02*
X110547239Y-79667920D01*
X110547239Y-79667920D02*
X110452001Y-79715539D01*
X110452001Y-79715539D02*
X110213906Y-79715539D01*
X110213906Y-79715539D02*
X110118668Y-79667920D01*
X110118668Y-79667920D02*
X110071049Y-79620300D01*
X110928192Y-78715539D02*
X111261525Y-79715539D01*
X111261525Y-79715539D02*
X111594858Y-78715539D01*
X161394858Y-78715539D02*
X160918668Y-78715539D01*
X160918668Y-78715539D02*
X160871049Y-79191729D01*
X160871049Y-79191729D02*
X160918668Y-79144110D01*
X160918668Y-79144110D02*
X161013906Y-79096491D01*
X161013906Y-79096491D02*
X161252001Y-79096491D01*
X161252001Y-79096491D02*
X161347239Y-79144110D01*
X161347239Y-79144110D02*
X161394858Y-79191729D01*
X161394858Y-79191729D02*
X161442477Y-79286967D01*
X161442477Y-79286967D02*
X161442477Y-79525062D01*
X161442477Y-79525062D02*
X161394858Y-79620300D01*
X161394858Y-79620300D02*
X161347239Y-79667920D01*
X161347239Y-79667920D02*
X161252001Y-79715539D01*
X161252001Y-79715539D02*
X161013906Y-79715539D01*
X161013906Y-79715539D02*
X160918668Y-79667920D01*
X160918668Y-79667920D02*
X160871049Y-79620300D01*
X161728192Y-78715539D02*
X162061525Y-79715539D01*
X162061525Y-79715539D02*
X162394858Y-78715539D01*
X135407477Y-85748158D02*
X135312239Y-85700539D01*
X135312239Y-85700539D02*
X135169382Y-85700539D01*
X135169382Y-85700539D02*
X135026525Y-85748158D01*
X135026525Y-85748158D02*
X134931287Y-85843396D01*
X134931287Y-85843396D02*
X134883668Y-85938634D01*
X134883668Y-85938634D02*
X134836049Y-86129110D01*
X134836049Y-86129110D02*
X134836049Y-86271967D01*
X134836049Y-86271967D02*
X134883668Y-86462443D01*
X134883668Y-86462443D02*
X134931287Y-86557681D01*
X134931287Y-86557681D02*
X135026525Y-86652920D01*
X135026525Y-86652920D02*
X135169382Y-86700539D01*
X135169382Y-86700539D02*
X135264620Y-86700539D01*
X135264620Y-86700539D02*
X135407477Y-86652920D01*
X135407477Y-86652920D02*
X135455096Y-86605300D01*
X135455096Y-86605300D02*
X135455096Y-86271967D01*
X135455096Y-86271967D02*
X135264620Y-86271967D01*
X135883668Y-86700539D02*
X135883668Y-85700539D01*
X135883668Y-85700539D02*
X136455096Y-86700539D01*
X136455096Y-86700539D02*
X136455096Y-85700539D01*
X136931287Y-86700539D02*
X136931287Y-85700539D01*
X136931287Y-85700539D02*
X137169382Y-85700539D01*
X137169382Y-85700539D02*
X137312239Y-85748158D01*
X137312239Y-85748158D02*
X137407477Y-85843396D01*
X137407477Y-85843396D02*
X137455096Y-85938634D01*
X137455096Y-85938634D02*
X137502715Y-86129110D01*
X137502715Y-86129110D02*
X137502715Y-86271967D01*
X137502715Y-86271967D02*
X137455096Y-86462443D01*
X137455096Y-86462443D02*
X137407477Y-86557681D01*
X137407477Y-86557681D02*
X137312239Y-86652920D01*
X137312239Y-86652920D02*
X137169382Y-86700539D01*
X137169382Y-86700539D02*
X136931287Y-86700539D01*
X85194858Y-78715539D02*
X84718668Y-78715539D01*
X84718668Y-78715539D02*
X84671049Y-79191729D01*
X84671049Y-79191729D02*
X84718668Y-79144110D01*
X84718668Y-79144110D02*
X84813906Y-79096491D01*
X84813906Y-79096491D02*
X85052001Y-79096491D01*
X85052001Y-79096491D02*
X85147239Y-79144110D01*
X85147239Y-79144110D02*
X85194858Y-79191729D01*
X85194858Y-79191729D02*
X85242477Y-79286967D01*
X85242477Y-79286967D02*
X85242477Y-79525062D01*
X85242477Y-79525062D02*
X85194858Y-79620300D01*
X85194858Y-79620300D02*
X85147239Y-79667920D01*
X85147239Y-79667920D02*
X85052001Y-79715539D01*
X85052001Y-79715539D02*
X84813906Y-79715539D01*
X84813906Y-79715539D02*
X84718668Y-79667920D01*
X84718668Y-79667920D02*
X84671049Y-79620300D01*
X85528192Y-78715539D02*
X85861525Y-79715539D01*
X85861525Y-79715539D02*
X86194858Y-78715539D01*
X110007477Y-85748158D02*
X109912239Y-85700539D01*
X109912239Y-85700539D02*
X109769382Y-85700539D01*
X109769382Y-85700539D02*
X109626525Y-85748158D01*
X109626525Y-85748158D02*
X109531287Y-85843396D01*
X109531287Y-85843396D02*
X109483668Y-85938634D01*
X109483668Y-85938634D02*
X109436049Y-86129110D01*
X109436049Y-86129110D02*
X109436049Y-86271967D01*
X109436049Y-86271967D02*
X109483668Y-86462443D01*
X109483668Y-86462443D02*
X109531287Y-86557681D01*
X109531287Y-86557681D02*
X109626525Y-86652920D01*
X109626525Y-86652920D02*
X109769382Y-86700539D01*
X109769382Y-86700539D02*
X109864620Y-86700539D01*
X109864620Y-86700539D02*
X110007477Y-86652920D01*
X110007477Y-86652920D02*
X110055096Y-86605300D01*
X110055096Y-86605300D02*
X110055096Y-86271967D01*
X110055096Y-86271967D02*
X109864620Y-86271967D01*
X110483668Y-86700539D02*
X110483668Y-85700539D01*
X110483668Y-85700539D02*
X111055096Y-86700539D01*
X111055096Y-86700539D02*
X111055096Y-85700539D01*
X111531287Y-86700539D02*
X111531287Y-85700539D01*
X111531287Y-85700539D02*
X111769382Y-85700539D01*
X111769382Y-85700539D02*
X111912239Y-85748158D01*
X111912239Y-85748158D02*
X112007477Y-85843396D01*
X112007477Y-85843396D02*
X112055096Y-85938634D01*
X112055096Y-85938634D02*
X112102715Y-86129110D01*
X112102715Y-86129110D02*
X112102715Y-86271967D01*
X112102715Y-86271967D02*
X112055096Y-86462443D01*
X112055096Y-86462443D02*
X112007477Y-86557681D01*
X112007477Y-86557681D02*
X111912239Y-86652920D01*
X111912239Y-86652920D02*
X111769382Y-86700539D01*
X111769382Y-86700539D02*
X111531287Y-86700539D01*
X219735477Y-88288158D02*
X219640239Y-88240539D01*
X219640239Y-88240539D02*
X219497382Y-88240539D01*
X219497382Y-88240539D02*
X219354525Y-88288158D01*
X219354525Y-88288158D02*
X219259287Y-88383396D01*
X219259287Y-88383396D02*
X219211668Y-88478634D01*
X219211668Y-88478634D02*
X219164049Y-88669110D01*
X219164049Y-88669110D02*
X219164049Y-88811967D01*
X219164049Y-88811967D02*
X219211668Y-89002443D01*
X219211668Y-89002443D02*
X219259287Y-89097681D01*
X219259287Y-89097681D02*
X219354525Y-89192920D01*
X219354525Y-89192920D02*
X219497382Y-89240539D01*
X219497382Y-89240539D02*
X219592620Y-89240539D01*
X219592620Y-89240539D02*
X219735477Y-89192920D01*
X219735477Y-89192920D02*
X219783096Y-89145300D01*
X219783096Y-89145300D02*
X219783096Y-88811967D01*
X219783096Y-88811967D02*
X219592620Y-88811967D01*
X220211668Y-89240539D02*
X220211668Y-88240539D01*
X220211668Y-88240539D02*
X220783096Y-89240539D01*
X220783096Y-89240539D02*
X220783096Y-88240539D01*
X221259287Y-89240539D02*
X221259287Y-88240539D01*
X221259287Y-88240539D02*
X221497382Y-88240539D01*
X221497382Y-88240539D02*
X221640239Y-88288158D01*
X221640239Y-88288158D02*
X221735477Y-88383396D01*
X221735477Y-88383396D02*
X221783096Y-88478634D01*
X221783096Y-88478634D02*
X221830715Y-88669110D01*
X221830715Y-88669110D02*
X221830715Y-88811967D01*
X221830715Y-88811967D02*
X221783096Y-89002443D01*
X221783096Y-89002443D02*
X221735477Y-89097681D01*
X221735477Y-89097681D02*
X221640239Y-89192920D01*
X221640239Y-89192920D02*
X221497382Y-89240539D01*
X221497382Y-89240539D02*
X221259287Y-89240539D01*
D10*
%TO.C,NEO5*%
X116876860Y-82778600D02*
G75*
G02*
X103925340Y-82778600I-6475760J0D01*
G01*
X103925340Y-82778600D02*
G75*
G02*
X116876860Y-82778600I6475760J0D01*
G01*
D13*
%TO.C,SW5*%
X107175300Y-104992800D02*
X109598590Y-104992800D01*
X107175300Y-111444400D02*
X107175300Y-104992800D01*
X107175300Y-111444400D02*
X109598590Y-111444400D01*
X111203610Y-104992800D02*
X113626900Y-104992800D01*
X111203610Y-111444400D02*
X113626900Y-111444400D01*
X113626900Y-111444400D02*
X113626900Y-104992800D01*
D14*
X110782100Y-113222400D02*
G75*
G02*
X110020100Y-113222400I-381000J0D01*
G01*
X110020100Y-113222400D02*
G75*
G02*
X110782100Y-113222400I381000J0D01*
G01*
D10*
%TO.C,R5*%
X109131100Y-98653600D02*
X120561100Y-98653600D01*
X109131100Y-101193600D02*
X109131100Y-98653600D01*
X109131100Y-101193600D02*
X120561100Y-101193600D01*
X120561100Y-101193600D02*
X120561100Y-98653600D01*
%TO.C,R7*%
X159931100Y-98653600D02*
X171361100Y-98653600D01*
X159931100Y-101193600D02*
X159931100Y-98653600D01*
X159931100Y-101193600D02*
X171361100Y-101193600D01*
X171361100Y-101193600D02*
X171361100Y-98653600D01*
D13*
%TO.C,SW9*%
X208775300Y-104992800D02*
X211198590Y-104992800D01*
X208775300Y-111444400D02*
X208775300Y-104992800D01*
X208775300Y-111444400D02*
X211198590Y-111444400D01*
X212803610Y-104992800D02*
X215226900Y-104992800D01*
X212803610Y-111444400D02*
X215226900Y-111444400D01*
X215226900Y-111444400D02*
X215226900Y-104992800D01*
D14*
X212382100Y-113222400D02*
G75*
G02*
X211620100Y-113222400I-381000J0D01*
G01*
X211620100Y-113222400D02*
G75*
G02*
X212382100Y-113222400I381000J0D01*
G01*
D10*
%TO.C,R6*%
X134531100Y-98653600D02*
X145961100Y-98653600D01*
X134531100Y-101193600D02*
X134531100Y-98653600D01*
X134531100Y-101193600D02*
X145961100Y-101193600D01*
X145961100Y-101193600D02*
X145961100Y-98653600D01*
%TO.C,R8*%
X185331100Y-98653600D02*
X196761100Y-98653600D01*
X185331100Y-101193600D02*
X185331100Y-98653600D01*
X185331100Y-101193600D02*
X196761100Y-101193600D01*
X196761100Y-101193600D02*
X196761100Y-98653600D01*
%TO.C,NEO1*%
X218476860Y-82778600D02*
G75*
G02*
X205525340Y-82778600I-6475760J0D01*
G01*
X205525340Y-82778600D02*
G75*
G02*
X218476860Y-82778600I6475760J0D01*
G01*
%TO.C,R9*%
X210731100Y-98653600D02*
X222161100Y-98653600D01*
X210731100Y-101193600D02*
X210731100Y-98653600D01*
X210731100Y-101193600D02*
X222161100Y-101193600D01*
X222161100Y-101193600D02*
X222161100Y-98653600D01*
%TO.C,R4*%
X83731100Y-98653600D02*
X95161100Y-98653600D01*
X83731100Y-101193600D02*
X83731100Y-98653600D01*
X83731100Y-101193600D02*
X95161100Y-101193600D01*
X95161100Y-101193600D02*
X95161100Y-98653600D01*
D13*
%TO.C,SW8*%
X183375300Y-104992800D02*
X185798590Y-104992800D01*
X183375300Y-111444400D02*
X183375300Y-104992800D01*
X183375300Y-111444400D02*
X185798590Y-111444400D01*
X187403610Y-104992800D02*
X189826900Y-104992800D01*
X187403610Y-111444400D02*
X189826900Y-111444400D01*
X189826900Y-111444400D02*
X189826900Y-104992800D01*
D14*
X186982100Y-113222400D02*
G75*
G02*
X186220100Y-113222400I-381000J0D01*
G01*
X186220100Y-113222400D02*
G75*
G02*
X186982100Y-113222400I381000J0D01*
G01*
D10*
%TO.C,NEO6*%
X91476860Y-82778600D02*
G75*
G02*
X78525340Y-82778600I-6475760J0D01*
G01*
X78525340Y-82778600D02*
G75*
G02*
X91476860Y-82778600I6475760J0D01*
G01*
%TO.C,NEO3*%
X167676860Y-82778600D02*
G75*
G02*
X154725340Y-82778600I-6475760J0D01*
G01*
X154725340Y-82778600D02*
G75*
G02*
X167676860Y-82778600I6475760J0D01*
G01*
%TO.C,NEO4*%
X142276860Y-82778600D02*
G75*
G02*
X129325340Y-82778600I-6475760J0D01*
G01*
X129325340Y-82778600D02*
G75*
G02*
X142276860Y-82778600I6475760J0D01*
G01*
D13*
%TO.C,SW4*%
X81775300Y-104992800D02*
X84198590Y-104992800D01*
X81775300Y-111444400D02*
X81775300Y-104992800D01*
X81775300Y-111444400D02*
X84198590Y-111444400D01*
X85803610Y-104992800D02*
X88226900Y-104992800D01*
X85803610Y-111444400D02*
X88226900Y-111444400D01*
X88226900Y-111444400D02*
X88226900Y-104992800D01*
D14*
X85382100Y-113222400D02*
G75*
G02*
X84620100Y-113222400I-381000J0D01*
G01*
X84620100Y-113222400D02*
G75*
G02*
X85382100Y-113222400I381000J0D01*
G01*
D15*
%TO.C,J1*%
X222161100Y-85318600D02*
X224701100Y-85318600D01*
X222161100Y-95478600D02*
X222161100Y-85318600D01*
X222161100Y-95478600D02*
X224701100Y-95478600D01*
X224701100Y-95478600D02*
X224701100Y-85318600D01*
X223531100Y-84668600D02*
G75*
G02*
X223331100Y-84668600I-100000J0D01*
G01*
X223331100Y-84668600D02*
G75*
G02*
X223531100Y-84668600I100000J0D01*
G01*
D13*
%TO.C,SW7*%
X157975300Y-104992800D02*
X160398590Y-104992800D01*
X157975300Y-111444400D02*
X157975300Y-104992800D01*
X157975300Y-111444400D02*
X160398590Y-111444400D01*
X162003610Y-104992800D02*
X164426900Y-104992800D01*
X162003610Y-111444400D02*
X164426900Y-111444400D01*
X164426900Y-111444400D02*
X164426900Y-104992800D01*
D14*
X161582100Y-113222400D02*
G75*
G02*
X160820100Y-113222400I-381000J0D01*
G01*
X160820100Y-113222400D02*
G75*
G02*
X161582100Y-113222400I381000J0D01*
G01*
D10*
%TO.C,NEO2*%
X193076860Y-82778600D02*
G75*
G02*
X180125340Y-82778600I-6475760J0D01*
G01*
X180125340Y-82778600D02*
G75*
G02*
X193076860Y-82778600I6475760J0D01*
G01*
D13*
%TO.C,SW6*%
X132575300Y-104992800D02*
X134998590Y-104992800D01*
X132575300Y-111444400D02*
X132575300Y-104992800D01*
X132575300Y-111444400D02*
X134998590Y-111444400D01*
X136603610Y-104992800D02*
X139026900Y-104992800D01*
X136603610Y-111444400D02*
X139026900Y-111444400D01*
X139026900Y-111444400D02*
X139026900Y-104992800D01*
D14*
X136182100Y-113222400D02*
G75*
G02*
X135420100Y-113222400I-381000J0D01*
G01*
X135420100Y-113222400D02*
G75*
G02*
X136182100Y-113222400I381000J0D01*
G01*
%TD*%
M02*
