%TF.GenerationSoftware,KiCad,Pcbnew,9.0.6*%
%TF.CreationDate,2025-12-19T10:25:59-07:00*%
%TF.ProjectId,6button-6neopixel,36627574-746f-46e2-9d36-6e656f706978,rev?*%
%TF.SameCoordinates,Original*%
%TF.FileFunction,Copper,L2,Bot*%
%TF.FilePolarity,Positive*%
%FSLAX46Y46*%
G04 Gerber Fmt 4.6, Leading zero omitted, Abs format (unit mm)*
G04 Created by KiCad (PCBNEW 9.0.6) date 2025-12-19 10:25:59*
%MOMM*%
%LPD*%
G01*
G04 APERTURE LIST*
%TA.AperFunction,ComponentPad*%
%ADD10C,1.370000*%
%TD*%
%TA.AperFunction,ComponentPad*%
%ADD11C,1.498600*%
%TD*%
%TA.AperFunction,ComponentPad*%
%ADD12C,1.143000*%
%TD*%
%TA.AperFunction,WasherPad*%
%ADD13C,3.810000*%
%TD*%
%TA.AperFunction,ComponentPad*%
%ADD14R,1.370000X1.370000*%
%TD*%
%TA.AperFunction,Conductor*%
%ADD15C,1.270000*%
%TD*%
G04 APERTURE END LIST*
D10*
%TO.P,NEO5,5V*%
%TO.N,NetJ1_01*%
X110401100Y-77698600D03*
%TO.P,NEO5,GND*%
%TO.N,GND*%
X110401100Y-87858600D03*
%TO.P,NEO5,IN*%
%TO.N,NetNEO4_OUT*%
X115481100Y-82778600D03*
%TO.P,NEO5,OUT*%
%TO.N,NetNEO5_OUT*%
X105321100Y-82778600D03*
%TD*%
D11*
%TO.P,SW5,1*%
%TO.N,NetJ1_04*%
X110401100Y-110718600D03*
%TO.P,SW5,2*%
%TO.N,NetR4_1*%
X110401100Y-105718600D03*
%TD*%
D12*
%TO.P,R5,1*%
%TO.N,NetR5_1*%
X119291100Y-99923600D03*
%TO.P,R5,2*%
%TO.N,NetR4_1*%
X110401100Y-99923600D03*
%TD*%
%TO.P,R7,1*%
%TO.N,NetR7_1*%
X170091100Y-99923600D03*
%TO.P,R7,2*%
%TO.N,NetR6_1*%
X161201100Y-99923600D03*
%TD*%
D11*
%TO.P,SW9,1*%
%TO.N,NetJ1_04*%
X212001100Y-110718600D03*
%TO.P,SW9,2*%
%TO.N,NetR8_1*%
X212001100Y-105718600D03*
%TD*%
D13*
%TO.P,,*%
%TO.N,*%
X218351100Y-143103600D03*
%TD*%
D12*
%TO.P,R6,1*%
%TO.N,NetR6_1*%
X144691100Y-99923600D03*
%TO.P,R6,2*%
%TO.N,NetR5_1*%
X135801100Y-99923600D03*
%TD*%
D13*
%TO.P,,*%
%TO.N,*%
X78651100Y-143103600D03*
%TD*%
D12*
%TO.P,R8,1*%
%TO.N,NetR8_1*%
X195491100Y-99923600D03*
%TO.P,R8,2*%
%TO.N,NetR7_1*%
X186601100Y-99923600D03*
%TD*%
D10*
%TO.P,NEO1,5V*%
%TO.N,NetJ1_01*%
X212001100Y-77698600D03*
%TO.P,NEO1,GND*%
%TO.N,GND*%
X212001100Y-87858600D03*
%TO.P,NEO1,IN*%
%TO.N,NetJ1_03*%
X217081100Y-82778600D03*
%TO.P,NEO1,OUT*%
%TO.N,NetNEO1_OUT*%
X206921100Y-82778600D03*
%TD*%
D12*
%TO.P,R9,1*%
%TO.N,GND*%
X220891100Y-99923600D03*
%TO.P,R9,2*%
%TO.N,NetR8_1*%
X212001100Y-99923600D03*
%TD*%
%TO.P,R4,1*%
%TO.N,NetR4_1*%
X93891100Y-99923600D03*
%TO.P,R4,2*%
%TO.N,NetJ1_01*%
X85001100Y-99923600D03*
%TD*%
D11*
%TO.P,SW8,1*%
%TO.N,NetJ1_04*%
X186601100Y-110718600D03*
%TO.P,SW8,2*%
%TO.N,NetR7_1*%
X186601100Y-105718600D03*
%TD*%
D10*
%TO.P,NEO6,5V*%
%TO.N,NetJ1_01*%
X85001100Y-77698600D03*
%TO.P,NEO6,GND*%
%TO.N,GND*%
X85001100Y-87858600D03*
%TO.P,NEO6,IN*%
%TO.N,NetNEO5_OUT*%
X90081100Y-82778600D03*
%TO.P,NEO6,OUT*%
%TO.N,N/C*%
X79921100Y-82778600D03*
%TD*%
D13*
%TO.P,,*%
%TO.N,*%
X218351100Y-66903600D03*
%TD*%
D10*
%TO.P,NEO3,5V*%
%TO.N,NetJ1_01*%
X161201100Y-77698600D03*
%TO.P,NEO3,GND*%
%TO.N,GND*%
X161201100Y-87858600D03*
%TO.P,NEO3,IN*%
%TO.N,NetNEO2_OUT*%
X166281100Y-82778600D03*
%TO.P,NEO3,OUT*%
%TO.N,NetNEO3_OUT*%
X156121100Y-82778600D03*
%TD*%
%TO.P,NEO4,5V*%
%TO.N,NetJ1_01*%
X135801100Y-77698600D03*
%TO.P,NEO4,GND*%
%TO.N,GND*%
X135801100Y-87858600D03*
%TO.P,NEO4,IN*%
%TO.N,NetNEO3_OUT*%
X140881100Y-82778600D03*
%TO.P,NEO4,OUT*%
%TO.N,NetNEO4_OUT*%
X130721100Y-82778600D03*
%TD*%
D13*
%TO.P,,*%
%TO.N,*%
X78651100Y-66903600D03*
%TD*%
D11*
%TO.P,SW4,1*%
%TO.N,NetJ1_04*%
X85001100Y-110718600D03*
%TO.P,SW4,2*%
%TO.N,NetJ1_01*%
X85001100Y-105718600D03*
%TD*%
D14*
%TO.P,J1,01*%
%TO.N,NetJ1_01*%
X223431100Y-86588600D03*
D10*
%TO.P,J1,02*%
%TO.N,GND*%
X223431100Y-89128600D03*
%TO.P,J1,03*%
%TO.N,NetJ1_03*%
X223431100Y-91668600D03*
%TO.P,J1,04*%
%TO.N,NetJ1_04*%
X223431100Y-94208600D03*
%TD*%
D11*
%TO.P,SW7,1*%
%TO.N,NetJ1_04*%
X161201100Y-110718600D03*
%TO.P,SW7,2*%
%TO.N,NetR6_1*%
X161201100Y-105718600D03*
%TD*%
D10*
%TO.P,NEO2,5V*%
%TO.N,NetJ1_01*%
X186601100Y-77698600D03*
%TO.P,NEO2,GND*%
%TO.N,GND*%
X186601100Y-87858600D03*
%TO.P,NEO2,IN*%
%TO.N,NetNEO1_OUT*%
X191681100Y-82778600D03*
%TO.P,NEO2,OUT*%
%TO.N,NetNEO2_OUT*%
X181521100Y-82778600D03*
%TD*%
D11*
%TO.P,SW6,1*%
%TO.N,NetJ1_04*%
X135801100Y-110718600D03*
%TO.P,SW6,2*%
%TO.N,NetR5_1*%
X135801100Y-105718600D03*
%TD*%
D15*
%TO.N,GND*%
X213271100Y-89128600D02*
X223431100Y-89128600D01*
X220891100Y-99923600D02*
X220891100Y-91668600D01*
X220891100Y-91668600D02*
G75*
G02*
X223431100Y-89128600I2540000J0D01*
G01*
X213271100Y-89128600D02*
G75*
G02*
X212001100Y-87858600I0J1270000D01*
G01*
%TD*%
M02*
