M48
; DRILL file {KiCad 9.0.6} date 2025-12-19T10:25:52-0700
; FORMAT={-:-/ absolute / inch / decimal}
; #@! TF.CreationDate,2025-12-19T10:25:52-07:00
; #@! TF.GenerationSoftware,Kicad,Pcbnew,9.0.6
; #@! TF.FileFunction,Plated,1,2,PTH
FMAT,2
INCH
; #@! TA.AperFunction,Plated,PTH,ComponentDrill
T1C0.0300
; #@! TA.AperFunction,Plated,PTH,ComponentDrill
T2C0.0390
; #@! TA.AperFunction,Plated,PTH,ComponentDrill
T3C0.0402
%
G90
G05
T1
X3.3465Y-3.934
X3.6965Y-3.934
X4.3465Y-3.934
X4.6965Y-3.934
X5.3465Y-3.934
X5.6965Y-3.934
X6.3465Y-3.934
X6.6965Y-3.934
X7.3465Y-3.934
X7.6965Y-3.934
X8.3465Y-3.934
X8.6965Y-3.934
T2
X3.3465Y-4.1621
X3.3465Y-4.359
X4.3465Y-4.1621
X4.3465Y-4.359
X5.3465Y-4.1621
X5.3465Y-4.359
X6.3465Y-4.1621
X6.3465Y-4.359
X7.3465Y-4.1621
X7.3465Y-4.359
X8.3465Y-4.1621
X8.3465Y-4.359
T3
X3.1465Y-3.259
X3.3465Y-3.059
X3.3465Y-3.459
X3.5465Y-3.259
X4.1465Y-3.259
X4.3465Y-3.059
X4.3465Y-3.459
X4.5465Y-3.259
X5.1465Y-3.259
X5.3465Y-3.059
X5.3465Y-3.459
X5.5465Y-3.259
X6.1465Y-3.259
X6.3465Y-3.059
X6.3465Y-3.459
X6.5465Y-3.259
X7.1465Y-3.259
X7.3465Y-3.059
X7.3465Y-3.459
X7.5465Y-3.259
X8.1465Y-3.259
X8.3465Y-3.059
X8.3465Y-3.459
X8.5465Y-3.259
X8.7965Y-3.409
X8.7965Y-3.509
X8.7965Y-3.609
X8.7965Y-3.709
M30
